# xmcd
#
# Track frame offsets: 
#        150
#        1377
#        12962
#        25342
#        38647
#        50887
#        60935
#        72645
#        91117
#        103567
#        116180
#        129585
#        141357
#        152872
#        165802
#        178175
#        189235
#        206165
#        218927
#        230515
#        241740
#        253192
#        265620
#        277545
#        289400
#        300607
#        312025
#        324687
#        336807
#
# Disc length: 4641 seconds
#
# Revision: 3
# Processed by: cddbd v1.5.2PL0 Copyright (c) Steve Scherf et al.
# Submitted via: ExactAudioCopy v1.1
#
DISCID=9d121f1d
DTITLE=Bob Wills and His Texas Playboys - San Antonio Rose - Disc 11
DYEAR=2000
DGENRE=Country
TTITLE0=Blue Bonnet Lane (alt - take 1 - false start) (mono)
TTITLE1=Blue Bonnet Lane (alt - take 3) (mono)
TTITLE2=Lil Liza Jane (alt - take 2) (mono)
TTITLE3=Ride On! (My Prairie Pinto) (alt - take 2) (mono)
TTITLE4=It's All Your Fault (alt - take 2) (mono)
TTITLE5=Miss Molly (rehearsal) (mono)
TTITLE6=Miss Molly (alt - take 2) (mono)
TTITLE7=It Never Can Be (alt - take 2) (mono)
TTITLE8=Roly Poly (alt - take 2) (mono)
TTITLE9=You Don't Care What Happens To Me (alt - take 2) (mono)
TTITLE10=Stay A Little Longer (alt - take 2) (mono)
TTITLE11=You Should Have Thought Of That Before (alt - take 2) (mono)
TTITLE12=New Spanish Two Step (alt - take 2) (mono)
TTITLE13=I'm Feelin' Bad (alt - take 2) (mono)
TTITLE14=This Is Southland (inst) (alt - take 2) (mono)
TTITLE15=Punkin' Stomp (inst) (alt - take 2) (mono)
TTITLE16=How Can It Be Wrong (alt - take 2) (mono)
TTITLE17=Brain Cloudy Blues (alt - take 2) (mono)
TTITLE18=Virginia (alt - take 2) (mono)
TTITLE19=I'm Gonna Be Boss From Now On (alt - take 2) (mono)
TTITLE20=There's Two Sides To Every Story (alt - take 1) (mono)
TTITLE21=The Devil Ain't Lazy (alt - take 2) (mono)
TTITLE22=Hometown Stomp (inst) (alt - take 2) (mono)
TTITLE23=Misery (alt - take 3) (mono)
TTITLE24=Down In My Neck Of The Woods (alt - take 2) (mono)
TTITLE25=I Just Don't Want That Kind Of Love (alt - take 3) (mono)
TTITLE26=Good Time Cake-Walk (alt - take 3) (mono)
TTITLE27=Can't Get Enough Of Texas (alt - take 2) (mono)
TTITLE28=New Texas Playboy Rag (alt - take 3) (mono)
EXTD=
EXTT0=
EXTT1=
EXTT2=
EXTT3=
EXTT4=
EXTT5=
EXTT6=
EXTT7=
EXTT8=
EXTT9=
EXTT10=
EXTT11=
EXTT12=
EXTT13=
EXTT14=
EXTT15=
EXTT16=
EXTT17=
EXTT18=
EXTT19=
EXTT20=
EXTT21=
EXTT22=
EXTT23=
EXTT24=
EXTT25=
EXTT26=
EXTT27=
EXTT28=
PLAYORDER=
